# xmcd
#
# Track frame offsets: 
#        150
#        20555
#        38617
#        58428
#        81223
#        95137
#        119363
#        133029
#        154091
#        173881
#        190909
#        240930
#
# Disc length: 3586 seconds
#
# Revision: 2
# Processed by: cddbd v1.5.2PL0 Copyright (c) Steve Scherf et al.
# Submitted via: ExactAudioCopy v1.1
#
DISCID=9f0e000c
DTITLE=Stacy Mitchhart - Midnight Breeze
DYEAR=2004
DGENRE=Blues
TTITLE0=Things have Changed
TTITLE1=I ain't the one
TTITLE2=Giving me Reasons
TTITLE3=Home Wreeker
TTITLE4=Midnight Breeze
TTITLE5=I'll play the Blues for you
TTITLE6=Blow On'em Baby
TTITLE7=Every Time I roll the Dice
TTITLE8=I Apologize
TTITLE9=Last night was the last Night
TTITLE10=I don't know why
TTITLE11=Double Crossed by Santa Claus
EXTD=YEAR: 2004
EXTT0=
EXTT1=
EXTT2=
EXTT3=
EXTT4=
EXTT5=
EXTT6=
EXTT7=
EXTT8=
EXTT9=
EXTT10=
EXTT11=
PLAYORDER=
